<svg xmlns="http://www.w3.org/2000/svg" version="1.1" xmlns:xlink="http://www.w3.org/1999/xlink" xmlns:svgjs="http://svgjs.com/svgjs" width="512" height="512" x="0" y="0" viewBox="0 0 512 512" style="enable-background:new 0 0 512 512" xml:space="preserve" class=""><circle r="256" cx="256" cy="256" fill="#1b68ff" shape="circle"></circle><g transform="matrix(0.7,0,0,0.7,76.80000000000001,76.80000271143763)"><g id="_11._Boss" data-name="11. Boss"><path d="m410.88 107.52a312 312 0 0 0 -26.88 126.67v125.81h-256v-125.81a312 312 0 0 0 -26.88-126.67c-17.41-39.18 11.28-83.52 54.28-83.52h201.2c42.98 0 71.7 44.33 54.28 83.52z" fill="#e38343" data-original="#e38343" class=""></path><path d="m384 368h-256a8 8 0 0 1 -8-8v-96a8 8 0 0 1 16 0v88h240v-117.81a318 318 0 0 1 27.57-129.92c15-33.85-9.77-72.27-47-72.27h-201.17c-37.17 0-62 38.4-47 72.27a318.3 318.3 0 0 1 27.4 119.47 8 8 0 1 1 -16 .52 302.67 302.67 0 0 0 -26-113.49c-19.72-44.39 12.83-94.77 61.6-94.77h201.2c48.74 0 81.33 50.35 61.59 94.77a302 302 0 0 0 -26.19 123.42v125.81a8 8 0 0 1 -8 8z" fill="#000000" data-original="#000000" class=""></path><path d="m8 360h496v48h-496z" fill="#e9a648" data-original="#e9a648"></path><path d="m8 384h496v24h-496z" fill="#d08840" data-original="#d08840"></path><path d="m504 416h-496a8 8 0 0 1 -8-8v-48a8 8 0 0 1 8-8h496a8 8 0 0 1 8 8v48a8 8 0 0 1 -8 8zm-488-16h480v-32h-480z" fill="#000000" data-original="#000000" class=""></path><path d="m312 32-6.5-9.75a32 32 0 0 0 -26.63-14.25h-78.87a32 32 0 0 0 -32 32v80h176v-56a32 32 0 0 0 -32-32z" fill="#596060" data-original="#596060"></path><path d="m344 128h-176a8 8 0 0 1 -8-8v-80a40 40 0 0 1 40-40h78.87a39.94 39.94 0 0 1 33.29 17.81l4.28 6.44a40 40 0 0 1 35.56 39.75v56a8 8 0 0 1 -8 8zm-168-16h160v-48a24 24 0 0 0 -24-24 8 8 0 0 1 -6.66-3.56l-6.5-9.75a24 24 0 0 0 -20-10.69h-78.84a24 24 0 0 0 -24 24z" fill="#000000" data-original="#000000" class=""></path><path d="m416 312.62v47.38h-320v-47.38a60 60 0 0 1 37.72-55.71l82.28-32.91 16-64h48l16 64 82.28 32.91a60 60 0 0 1 37.72 55.71z" fill="#596060" data-original="#596060"></path><path d="m96 336h320v24h-320z" fill="#4c5657" data-original="#4c5657"></path><path d="m323.72 235.09c-18.62 117.96-14.72 93.44-19.72 124.91h-96c-4.85-30.68-1.34-8.46-19.72-124.91l27.72-11.09 4-16h72l4 16z" fill="#f6f6f6" data-original="#f6f6f6"></path><path d="m307.79 336-3.79 24h-96l-3.79-24z" fill="#dcdcdc" data-original="#dcdcdc"></path><path d="m296 224-40 40-40-40 16-64h48z" fill="#e0c3aa" data-original="#e0c3aa"></path><path d="m416 368h-320a8 8 0 0 1 -8-8v-47.38a67.66 67.66 0 0 1 42.75-63.13l78.48-31.4 15-60a8 8 0 0 1 7.77-6.09h48a8 8 0 0 1 7.76 6.06l15 60 78.48 31.4a67.66 67.66 0 0 1 42.76 63.16v47.38a8 8 0 0 1 -8 8zm-312-16h304v-39.38a51.75 51.75 0 0 0 -32.69-48.28l-82.31-32.91a8 8 0 0 1 -4.79-5.49l-14.46-57.94h-35.5l-14.49 57.94a8 8 0 0 1 -4.79 5.49l-82.28 32.91a51.75 51.75 0 0 0 -32.69 48.28z" fill="#000000" data-original="#000000" class=""></path><path d="m280 280-8 32h-32l-8-32 24-16z" fill="#cd4f5f" data-original="#cd4f5f"></path><path d="m272 320h-32a8 8 0 0 1 -7.76-6.06l-8-32a8 8 0 0 1 3.32-8.6l24-16a8 8 0 0 1 8.88 0l24 16a8 8 0 0 1 3.32 8.6l-8 32a8 8 0 0 1 -7.76 6.06zm-25.75-16h19.5l5.12-20.47-14.87-9.92-14.87 9.92z" fill="#000000" data-original="#000000" class=""></path><path d="m256 208a64 64 0 0 1 -64-64v-48h8a80 80 0 0 0 64-32l4.8 6.4a64 64 0 0 0 51.2 25.6c.1 0 0 48.1 0 48a64 64 0 0 1 -64 64z" fill="#e0c3aa" data-original="#e0c3aa"></path><path d="m256 184a64 64 0 0 1 -64-64v24a64 64 0 0 0 128 0v-24a64 64 0 0 1 -64 64z" fill="#d0a37f" data-original="#d0a37f"></path><path d="m256 216a72.08 72.08 0 0 1 -72-72v-48a8 8 0 0 1 8-8h8a72.36 72.36 0 0 0 57.6-28.8 8 8 0 0 1 12.8 0l4.8 6.4a56.26 56.26 0 0 0 44.8 22.4 8 8 0 0 1 8 8v48a72.08 72.08 0 0 1 -72 72zm-56-112v40a56 56 0 0 0 112 0v-40.45a72.43 72.43 0 0 1 -48.38-26.77 88.48 88.48 0 0 1 -63.62 27.22z" fill="#000000" data-original="#000000" class=""></path><path d="m184 144h8v-48h-8a24 24 0 0 0 0 48z" fill="#e0c3aa" data-original="#e0c3aa"></path><path d="m192 152h-8a32 32 0 0 1 0-64h8a8 8 0 0 1 8 8v48a8 8 0 0 1 -8 8zm-8-48a16 16 0 0 0 0 32z" fill="#000000" data-original="#000000" class=""></path><path d="m320 144h8a24 24 0 0 0 0-48h-8z" fill="#e0c3aa" data-original="#e0c3aa"></path><path d="m328 152h-8a8 8 0 0 1 -8-8v-48a8 8 0 0 1 8-8h8a32 32 0 0 1 0 64zm0-48v32a16 16 0 0 0 0-32z" fill="#000000" data-original="#000000" class=""></path><path d="m256 264-32 32-34.18-61.53 26.18-10.47z" fill="#f6f6f6" data-original="#f6f6f6"></path><path d="m217 299.88-34.18-61.53a8 8 0 0 1 4-11.31l26.18-10.47a8 8 0 0 1 8.63 1.77l40 40a8 8 0 0 1 0 11.32l-32 32a8 8 0 0 1 -12.63-1.78zm-15.79-61.35 24.62 44.31 18.86-18.84-30.62-30.61z" fill="#000000" data-original="#000000" class=""></path><path d="m322.18 234.47-34.18 61.53-32-32 40-40z" fill="#f6f6f6" data-original="#f6f6f6"></path><path d="m282.34 301.66-32-32a8 8 0 0 1 0-11.32l40-40a8 8 0 0 1 8.63-1.77l26.18 10.43a8 8 0 0 1 4 11.31l-34.15 61.57a8 8 0 0 1 -12.66 1.78zm-15-37.66 18.85 18.84 24.62-44.31-12.85-5.14z" fill="#000000" data-original="#000000" class=""></path><path d="m288 360h-64l16-48h32z" fill="#cd4f5f" data-original="#cd4f5f"></path><path d="m288 360h-64l8-24h48z" fill="#b24654" data-original="#b24654"></path><path d="m288 368h-64a8 8 0 0 1 -7.59-10.53l16-48a8 8 0 0 1 7.59-5.47h32a8 8 0 0 1 7.59 5.47l16 48a8 8 0 0 1 -7.59 10.53zm-52.9-16h41.8l-10.67-32h-20.46z" fill="#000000" data-original="#000000" class=""></path><path d="m236.42 175.16a8 8 0 1 1 7.16-14.32 27.9 27.9 0 0 0 24.84 0 8 8 0 0 1 7.16 14.32 44 44 0 0 1 -39.16 0z" fill="#000000" data-original="#000000" class=""></path><path d="m24 408h464v96h-464z" fill="#e38343" data-original="#e38343" class=""></path><path d="m24 408h464v24h-464z" fill="#df6117" data-original="#df6117"></path><path d="m24 480h464v24h-464z" fill="#df6117" data-original="#df6117"></path><path d="m24 512a8 8 0 0 1 -8-8v-96a8 8 0 0 1 8-8h464a8 8 0 0 1 0 16h-456v88a8 8 0 0 1 -8 8z" fill="#000000" data-original="#000000" class=""></path><path d="m488 512a8 8 0 0 1 -8-8v-64a8 8 0 0 1 16 0v64a8 8 0 0 1 -8 8z" fill="#000000" data-original="#000000" class=""></path><path d="m352 368h-48a8 8 0 0 1 -7.88-9.39l21.89-124a8 8 0 0 1 10.85-6l18.14 7.16a8.19 8.19 0 0 1 3.18 2.31l24 28.8a8 8 0 0 1 .71 9.24l-21.4 35.65 13.2 19.79a8 8 0 0 1 .93 7l-8 24a8 8 0 0 1 -7.62 5.44zm-38.46-16h32.69l4.94-14.82-13.83-20.74a8 8 0 0 1 -.2-8.56l21.08-35.12-19.07-22.88-7.09-2.88z" fill="#000000" data-original="#000000" class=""></path><path d="m208 368h-48a8 8 0 0 1 -7.59-5.47l-8-24a8 8 0 0 1 .93-7l13.2-19.79-21.4-35.65a8 8 0 0 1 .71-9.24l24-28.8a8.19 8.19 0 0 1 3.18-2.31l18.11-7.24a8 8 0 0 1 10.85 6l21.89 124a8 8 0 0 1 -7.88 9.5zm-42.23-16h32.69l-18.52-105-7.09 2.84-19.07 22.88 21.08 35.12a8 8 0 0 1 -.2 8.56l-13.83 20.74z" fill="#000000" data-original="#000000" class=""></path><path d="m392 328h96v32h-96z" fill="#8d6d5f" data-original="#8d6d5f"></path><path d="m488 368h-96a8 8 0 0 1 -8-8v-32a8 8 0 0 1 8-8h96a8 8 0 0 1 8 8v32a8 8 0 0 1 -8 8zm-88-16h80v-16h-80z" fill="#000000" data-original="#000000" class=""></path></g></g></svg>