<svg width="233.9952265446859" height="265.3125" viewBox="0 0 404.68750000000006 458.84975488269583" class="css-1j8o68f"><defs id="SvgjsDefs1471"></defs><g id="SvgjsG1472" featurekey="rootContainer" transform="matrix(8.159019918405495,0,0,8.159019918405495,0.0000600344614263752,0.03405204194603459)" fill="#07689f"><path xmlns="http://www.w3.org/2000/svg" d="M23.11 55.78L1.69 43.41A3.39 3.39 0 0 1 0 40.48V15.75a3.39 3.39 0 0 1 1.69-2.94L23.11.45a3.39 3.39 0 0 1 3.39 0l21.41 12.37a3.39 3.39 0 0 1 1.69 2.94v24.72a3.39 3.39 0 0 1-1.69 2.94L26.5 55.78a3.39 3.39 0 0 1-3.39 0z"></path></g><g id="SvgjsG1473" featurekey="symbolFeature-0" transform="matrix(1.6781442238413322,0,0,1.6781442238413322,117.46035529587772,102.19016053002788)" fill="#fafafa"><path xmlns="http://www.w3.org/2000/svg" d="M41.242,47.696c0,0-4.303-1.777-7.297,3.274c0,0-2.338-0.936-3.648,1.589c0,0-4.209,0.281-5.145,5.052  c0,0-1.029,2.526-1.965,3.367c0,0-0.468,4.21,4.396,9.916c0,0,5.987,10.384,8.7,12.255c0,0,4.958,5.612,5.145,7.108  c0,0,3.087,3.274,7.67,4.304c0,0,7.857,1.87,9.916-2.339c0,0,4.958-6.174,6.548-11.506c0,0,5.052-11.319,5.239-11.786  c0,0,2.339-4.21-0.843-9.448c0,0-6.641,3.087-10.009-1.497c0,0-3.555-1.402-4.303-2.993c0,0-3.461-2.058-5.894-1.403  c0,0-1.871-2.058-3.461-2.151l-0.188-1.31C46.105,50.128,42.458,50.783,41.242,47.696z"></path><path xmlns="http://www.w3.org/2000/svg" d="M70.146,58.641c0,0,2.713-4.303,0.468-7.484c0,0,0.094-2.899-2.619-4.303c0,0-1.123-3.086-2.899-2.525  c0,0-1.497,0-1.31,1.87c0,0-1.685,0.375-1.685,1.31c0,0-3.087,1.029-2.712,3.742c0,0-2.994,2.526,0.654,5.146  c0,0,0.374,2.339,4.115,3.555C64.159,59.95,68.37,60.138,70.146,58.641z"></path><path xmlns="http://www.w3.org/2000/svg" d="M23.188,58.734c0,0-1.964-0.749-1.31-4.21c0,0-3.929-15.341,6.829-21.328c0,0,3.929-5.425,5.893-3.835  c0,0,2.152,0.935,0.656,4.958c0,0,3.18,3.087,1.871,5.426c0,0,1.403,1.87-0.188,3.087c0,0,0.936,2.338-1.122,3.555  c0,0-2.339,1.59-2.245,3.555c0,0-2.9-0.375-3.648,1.684c0,0-5.051,0.842-5.332,5.331C24.591,56.956,24.217,58.921,23.188,58.734z"></path><path xmlns="http://www.w3.org/2000/svg" d="M28.987,31.887c0,0,3.041-3.835,5.145-3.321c0,0,2.385,0.327,2.105,4.116l-0.468,1.591l0.702,0.795  c0,0,1.216-6.127,2.994-5.894c0,0,3.694-3.929,2.712-10.524c0,0-4.256,0.141-10.103,6.502  C32.075,25.152,28.894,28.987,28.987,31.887z"></path><path xmlns="http://www.w3.org/2000/svg" d="M71.269,51.204c0,0,1.965-5.894,0.562-9.495c0,0,1.684-2.433,2.947,0c0,0,1.029,1.403,1.776,0.234l1.17,1.028  c0,0,1.59,0.281,1.777-1.075l-1.964-3.228l2.759-0.094c0,0,1.029-1.87,0.047-3.133l-2.525-0.374l1.402-1.216  c0,0,0.142-1.824-1.122-1.73l-1.824,2.572l-12.16,2.386c0,0-2.76-0.281-3.508,3.695c0,0-1.216,5.612-4.491,10.009  c0,0,1.217,3.087,0.982,4.256c0,0-0.795,0.889,2.433,2.338l0.047-0.607c0,0-2.386-1.824-1.777-3.882c0,0,0.468-1.543,1.029-1.73  c0,0-0.421-2.526,2.807-4.069c0,0,0.654-1.31,1.589-1.357c0,0,0.421-2.105,1.778-2.058c0,0,2.104-0.561,3.414,2.9  C68.416,46.574,70.848,47.462,71.269,51.204z"></path><path xmlns="http://www.w3.org/2000/svg" d="M77.068,27.397c0,0-7.389-0.468-12.722,1.684c0,0-4.49,3.555-9.915,2.526c0,0-3.274,0.07-4.116-0.585  c0,0-2.783,1.52-3.228,4.607c0,0,3.882-0.749,4.162,2.432c0,0-0.093,4.49-4.021,5.706c0,0-3.648,0.654-5.426,3.086  c0,0,0.655,3.274,4.584,2.619c0,0,1.309-3.647,4.771-3.741c0,0-4.116,1.777-4.209,5.144c0,0,1.964,0.936,3.087,2.059  c0,0,2.993-0.281,6.455,1.87c0,0,0-2.432-1.123-4.022c0,0,4.21-6.081,4.678-10.384c0,0,0.748-4.396,4.022-3.835l11.974-2.338  C76.04,34.226,77.817,30.391,77.068,27.397z M76.549,30.93c-0.244,1.648-0.66,2.952-0.929,2.912  c-0.269-0.04-0.288-1.408-0.043-3.056s0.661-2.952,0.93-2.911C76.775,27.914,76.793,29.282,76.549,30.93z"></path><g xmlns="http://www.w3.org/2000/svg"><path d="M38.436,19.352c0,0,2.479-1.543,4.115-1.122c0,0,1.497,5.145-2.338,11.318c0,0,3.181-4.302,5.146-5.425   c0,0-1.59-7.765-4.21-12.161c-2.619-4.396-1.683-6.455-1.683-6.455s-2.526-1.029-3.648,1.029l2.151,6.642   c0,0-5.52-5.52-11.226-2.432c0,0-1.216,2.245,1.31,3.274c0,0,1.871-2.339,6.548,0.842C34.6,14.862,37.687,17.107,38.436,19.352z    M37.765,6.522c-0.794,0.194-1.49,0.137-1.554-0.126c-0.064-0.264,0.526-0.634,1.32-0.828c0.794-0.193,1.489-0.137,1.554,0.127   C39.15,5.959,38.558,6.329,37.765,6.522z"></path><path d="M67.527,12.804c0,0-4.677-4.116-9.354-1.777c0,0-6.08,2.526-7.39,10.383l-0.842,0.842c0,0,2.245-13.95,3.274-15.061   c0,0-1.403-1.965-3.929-0.749c0,0-2.9,6.829-3.087,16.932l0.047,0.888c0,0-2.76,1.871-5.8,5.893l-0.889-0.28   c0,0-1.73-0.046-2.573,5.893c0,0,1.638,1.684,0.842,3.976c0,0,1.029,1.684-0.234,3.461c0,0,0.421,2.104-0.795,3.368   c0,0-2.105,0.842-2.572,2.853c0,0,2.759-3.508,6.734-2.526c0,0,1.872-2.806,5.613-3.976c0,0-2.713-9.448,4.49-13.002   c0,0,5.238-1.871,8.139,1.123c0,0,4.771-1.777,5.238-2.993c0,0-1.217-4.865-9.354-6.642c0,0,1.028-10.29,10.852-6.267   C65.938,15.143,67.995,14.488,67.527,12.804z M49.747,6.589c0.038-0.269,0.724-0.395,1.533-0.282   c0.81,0.113,1.435,0.423,1.396,0.691c-0.036,0.269-0.723,0.395-1.532,0.282S49.709,6.858,49.747,6.589z M66.854,14.178   c-0.449,0.43-0.965,0.621-1.153,0.425c-0.188-0.196,0.024-0.704,0.474-1.134c0.449-0.431,0.965-0.621,1.152-0.425   C67.515,13.24,67.303,13.748,66.854,14.178z"></path></g></g><g id="SvgjsG1474" featurekey="nameFeature-0" transform="matrix(1.1431185825929602,0,0,1.1431185825929602,99.0676703752262,269.3799719819431)" fill="#fafafa"><path d="M19.12 36.24 l-0.76 3.04 c-0.16 0.64 -0.28 0.72 -0.88 0.72 l-13.2 0 c-0.68 0 -0.84 -0.12 -0.84 -0.84 l0 -25.72 c0 -0.72 0.16 -0.84 0.84 -0.84 l3.72 0 c0.68 0 0.84 0.12 0.84 0.84 l0 21.76 l9.64 0 c0.56 0 0.72 0.2 0.72 0.52 c0 0.12 -0.04 0.36 -0.08 0.52 z M29.36 20.8 l0 18.64 c0 0.44 -0.08 0.56 -0.56 0.56 l-3.96 0 c-0.48 0 -0.56 -0.12 -0.56 -0.56 l0 -15.48 l-3.08 0 c-0.48 0 -0.56 -0.12 -0.56 -0.56 l0 -2.6 c0 -0.44 0.08 -0.56 0.56 -0.56 l7.6 0 c0.48 0 0.56 0.12 0.56 0.56 z M30.08 14.32 c0 1.84 -1.48 3.32 -3.28 3.32 c-1.84 0 -3.32 -1.48 -3.32 -3.32 s1.48 -3.28 3.32 -3.28 c1.8 0 3.28 1.44 3.28 3.28 z M41.96 23.96 l0 15.2 c0 0.72 -0.16 0.84 -0.84 0.84 l-3.4 0 c-0.68 0 -0.84 -0.12 -0.84 -0.84 l0 -15.2 l-2.84 0 c-0.68 0 -0.84 -0.12 -0.84 -0.84 l0 -2.04 c0 -0.72 0.16 -0.84 0.84 -0.84 l2.84 0 l0 -1.64 c0 -4.4 1.6 -7.56 6.4 -7.56 c1.8 0 4.88 0.64 4.88 1.44 c0 0.12 -0.04 0.24 -0.08 0.36 l-0.72 2.8 c-0.04 0.16 -0.2 0.4 -0.36 0.4 c-0.44 0 -1.28 -0.68 -2.8 -0.68 c-2.16 0 -2.24 1.32 -2.24 3.24 l0 1.64 l4.56 0 c0.36 0 0.68 0.08 0.68 0.4 c0 0.16 -0.04 0.24 -0.08 0.4 l-0.56 2.36 c-0.12 0.52 -0.36 0.56 -0.76 0.56 l-3.84 0 z M64.04 35.480000000000004 l1 2.4 c0.08 0.12 0.12 0.28 0.12 0.44 c0 1.04 -4 2.36 -7.16 2.36 c-5.28 0 -8.96 -3 -8.96 -10.36 c0 -6.36 3.4 -10.76 8.76 -10.76 c6.8 0 8 6.08 8 10.92 c0 0.76 -0.16 1 -0.92 1 l-10.76 0 c0 2.24 0.64 5 4.4 5 c2.88 0 4.52 -1.32 5.08 -1.32 c0.2 0 0.36 0.16 0.44 0.32 z M54.120000000000005 27.759999999999998 l6.28 0 c0 -1.64 -0.12 -4.48 -2.88 -4.48 c-3.12 0 -3.28 3.36 -3.4 4.48 z M84.88000000000001 14.96 l-1.32 2.64 c-0.12 0.24 -0.28 0.4 -0.44 0.4 c-0.24 0 -2.72 -1.76 -5.6 -1.76 c-1.84 0 -3.76 0.72 -3.76 3.12 c0 3.04 4.68 3.6 8.2 6.2 c2.04 1.52 3.44 3.64 3.44 6.68 c0 5.08 -3.6 8.44 -8.64 8.44 c-4.08 0 -8.36 -1.76 -8.36 -2.4 c0 -0.12 0.12 -0.4 0.2 -0.64 l0.92 -2.64 c0.08 -0.24 0.28 -0.4 0.44 -0.4 c0.24 0 3.2 1.76 6.64 1.76 c2.24 0 3.6 -1.2 3.6 -3.68 c0 -3.56 -4.08 -3.92 -8.16 -6.4 c-2.12 -1.28 -3.48 -2.88 -3.48 -6.2 c0 -5.76 4.16 -8.16 8.8 -8.16 c3.8 0 7.72 1.76 7.72 2.44 c0 0.12 -0.04 0.28 -0.2 0.6 z M97.00000000000001 36.68 c2.8 0 3.28 -2.8 3.28 -6.56 c0 -3.72 -0.52 -6.56 -3.28 -6.56 s-3.28 2.84 -3.28 6.56 s0.48 6.56 3.28 6.56 z M105.68 30.119999999999997 c0 6.44 -3.28 10.56 -8.68 10.56 s-8.68 -4.12 -8.68 -10.56 s3.28 -10.56 8.68 -10.56 c5.36 0 8.68 4.12 8.68 10.56 z M126.32000000000002 39.56 l-3.04 1 c-0.24 0.08 -0.44 0.12 -0.6 0.12 c-0.52 0 -0.84 -0.76 -1.28 -2.36 c-1.08 0.96 -2.96 2.36 -6.12 2.36 c-2.2 0 -5.2 -1 -5.2 -5.84 l0 -13.76 c0 -0.56 0.28 -0.6 0.76 -0.72 l3.36 -0.68 c0.12 0 0.52 -0.12 0.64 -0.12 c0.24 0 0.32 0.16 0.32 0.84 l0 12.72 c0 1.52 0.2 3.36 2.24 3.36 c1.68 0 3 -0.88 3.52 -1.24 l0 -14.16 c0 -0.56 0.28 -0.6 0.76 -0.72 l3.36 -0.68 c0.12 0 0.52 -0.12 0.68 -0.12 c0.2 0 0.28 0.16 0.28 0.84 l0 12.48 c0 5.64 0.76 5.32 0.76 6.24 c0 0.2 -0.16 0.36 -0.44 0.44 z M136.76000000000002 26.08 l0 13.36 c0 0.44 -0.08 0.56 -0.56 0.56 l-3.96 0 c-0.48 0 -0.56 -0.12 -0.56 -0.56 l0 -12.08 c0 -4.4 -1.04 -5.12 -1.04 -6.04 c0 -0.16 0.16 -0.28 0.36 -0.36 l3.04 -1.24 c0.16 -0.04 0.36 -0.16 0.52 -0.16 c0.48 0 1.28 1.8 1.48 3.16 c0.76 -0.92 2.24 -3.16 4.96 -3.16 c1.16 0 2.32 0.4 2.32 0.92 c0 0.16 -0.04 0.32 -0.08 0.4 l-1.24 3.36 c-0.04 0.12 -0.16 0.36 -0.32 0.36 c-0.24 0 -0.96 -0.44 -1.88 -0.44 c-1.24 0 -2.52 1.36 -3.04 1.92 z M157.96000000000004 35.519999999999996 l1.04 2.64 c0.04 0.12 0.12 0.28 0.12 0.4 c0 0.96 -3.24 2.12 -5.64 2.12 c-5.56 0 -8.88 -3.4 -8.88 -10.16 s3.4 -10.96 9.32 -10.96 c2.16 0 5.68 1.2 5.68 2.44 c0 0.12 -0.08 0.24 -0.12 0.36 l-1.48 2.6 c-0.08 0.08 -0.16 0.2 -0.28 0.2 c-0.4 0 -1.72 -1.6 -3.8 -1.6 c-2.72 0 -3.92 2.08 -3.92 6.68 c0 4.4 1.04 6.44 4.12 6.44 c2.04 0 2.84 -1.36 3.56 -1.36 c0.12 0 0.2 0.08 0.28 0.2 z M176.64000000000004 35.480000000000004 l1 2.4 c0.08 0.12 0.12 0.28 0.12 0.44 c0 1.04 -4 2.36 -7.16 2.36 c-5.28 0 -8.96 -3 -8.96 -10.36 c0 -6.36 3.4 -10.76 8.76 -10.76 c6.8 0 8 6.08 8 10.92 c0 0.76 -0.16 1 -0.92 1 l-10.76 0 c0 2.24 0.64 5 4.4 5 c2.88 0 4.52 -1.32 5.08 -1.32 c0.2 0 0.36 0.16 0.44 0.32 z M166.72000000000003 27.759999999999998 l6.28 0 c0 -1.64 -0.12 -4.48 -2.88 -4.48 c-3.12 0 -3.28 3.36 -3.4 4.48 z"></path></g><g id="SvgjsG1475" featurekey="sloganFeature-0" transform="matrix(1,0,0,1,70.80000019073486,325.1199984550476)" fill="#fafafa"><path d="M2.2 6.02 l8.76 0 l0 1.24 l-7.38 0 l0 5.38 l6.58 0 l0 1.24 l-6.58 0 l0 6.12 l-1.38 0 l0 -13.98 z M23.840000000000003 20 l-1.66 -3.72 l-7.76 0 l-1.64 3.72 l-1.48 0 l6.3 -13.98 l1.44 0 l6.3 13.98 l-1.5 0 z M14.96 15.04 l6.68 0 l-3.36 -7.56 z M33.52 7.470000000000001 q-1.02 -0.29 -1.92 -0.29 q-1.44 0 -2.31 0.57 t-0.87 1.55 q0 0.86 0.48 1.4 t1.18 0.85 t1.92 0.69 q1.42 0.42 2.29 0.83 t1.48 1.19 t0.61 2.06 q0 1.12 -0.63 1.98 t-1.77 1.33 t-2.62 0.47 q-1.46 0 -2.85 -0.58 t-2.39 -1.54 l0.64 -1.14 q0.94 0.92 2.18 1.44 t2.44 0.52 q1.6 0 2.54 -0.65 t0.94 -1.75 q0 -0.88 -0.48 -1.44 t-1.18 -0.86 t-1.96 -0.7 q-1.42 -0.44 -2.28 -0.83 t-1.46 -1.16 t-0.6 -2.01 q0 -1.06 0.6 -1.86 t1.68 -1.23 t2.5 -0.43 q1.14 0 2.29 0.34 t2.03 0.9 l-0.6 1.18 q-0.86 -0.54 -1.88 -0.83 z M37.82 6 l10.62 0 l0 1.26 l-4.62 0 l0 12.74 l-1.38 0 l0 -12.74 l-4.62 0 l0 -1.26 z M51.230000000000004 18.61 q0.25 0.25 0.25 0.65 q0 0.28 -0.22 0.76 l-1 2.28 l-0.8 0 l0.78 -2.26 q-0.24 -0.1 -0.37 -0.32 t-0.13 -0.46 q0 -0.38 0.25 -0.64 t0.63 -0.26 q0.36 0 0.61 0.25 z M63.92 20 l-3.02 -4.56 q-0.64 0.04 -0.98 0.04 l-3.84 0 l0 4.52 l-1.38 0 l0 -13.98 l5.22 0 q2.62 0 4.05 1.21 t1.43 3.43 q0 1.74 -0.84 2.9 t-2.4 1.62 l3.36 4.82 l-1.6 0 z M59.92 14.24 q2 0 3.08 -0.91 t1.08 -2.63 q0 -1.68 -1.08 -2.56 t-3.08 -0.88 l-3.84 0 l0 6.98 l3.84 0 z M69.16000000000001 6.02 l9.36 0 l0 1.24 l-7.98 0 l0 5 l7.14 0 l0 1.24 l-7.14 0 l0 5.26 l8.24 0 l0 1.24 l-9.62 0 l0 -13.98 z M82.16000000000001 6.02 l1.38 0 l0 12.74 l6.16 0 l0 1.24 l-7.54 0 l0 -13.98 z M92.42000000000002 6.02 l1.38 0 l0 13.98 l-1.38 0 l0 -13.98 z M108.64000000000001 20 l-1.66 -3.72 l-7.76 0 l-1.64 3.72 l-1.48 0 l6.3 -13.98 l1.44 0 l6.3 13.98 l-1.5 0 z M99.76000000000002 15.04 l6.68 0 l-3.36 -7.56 z M121.59 6.93 q1.19 0.93 1.19 2.57 q0 1.24 -0.69 2.08 t-1.93 1.1 q1.54 0.2 2.4 1.14 t0.86 2.38 q0 1.8 -1.34 2.8 t-3.72 1 l-5.92 0 l0 -14 l5.86 0 q2.1 0 3.29 0.93 z M120.54 11.53 q0.82 -0.65 0.82 -1.85 q0 -1.16 -0.82 -1.8 t-2.3 -0.62 l-4.42 0 l0 4.92 l4.42 0 q1.48 0 2.3 -0.65 z M121.03 18.05 q0.99 -0.71 0.99 -1.99 q0 -1.26 -1 -1.96 t-2.78 -0.7 l-4.42 0 l0 5.36 l4.42 0 q1.8 0 2.79 -0.71 z M126.82000000000001 6.02 l1.38 0 l0 12.74 l6.16 0 l0 1.24 l-7.54 0 l0 -13.98 z M137.07999999999998 6.02 l9.36 0 l0 1.24 l-7.98 0 l0 5 l7.14 0 l0 1.24 l-7.14 0 l0 5.26 l8.24 0 l0 1.24 l-9.62 0 l0 -13.98 z M150.45 18.61 q0.25 0.25 0.25 0.65 q0 0.28 -0.22 0.76 l-1 2.28 l-0.8 0 l0.78 -2.26 q-0.24 -0.1 -0.37 -0.32 t-0.13 -0.46 q0 -0.38 0.25 -0.64 t0.63 -0.26 q0.36 0 0.61 0.25 z M164.36 20 l-1.66 -3.72 l-7.76 0 l-1.64 3.72 l-1.48 0 l6.3 -13.98 l1.44 0 l6.3 13.98 l-1.5 0 z M155.48 15.04 l6.68 0 l-3.36 -7.56 z M176.38 7.58 q-1.1 -0.46 -2.28 -0.46 q-1.62 0 -2.97 0.78 t-2.14 2.13 t-0.79 2.95 t0.79 2.94 t2.14 2.13 t2.97 0.79 q1.16 0 2.26 -0.45 t1.96 -1.25 l0.84 0.9 q-1.04 0.96 -2.38 1.52 t-2.74 0.56 q-1.98 0 -3.64 -0.96 t-2.63 -2.6 t-0.97 -3.58 t0.98 -3.56 t2.65 -2.57 t3.65 -0.95 q1.42 0 2.74 0.53 t2.32 1.47 l-0.82 0.96 q-0.84 -0.82 -1.94 -1.28 z M190.4 7.58 q-1.1 -0.46 -2.28 -0.46 q-1.62 0 -2.97 0.78 t-2.14 2.13 t-0.79 2.95 t0.79 2.94 t2.14 2.13 t2.97 0.79 q1.16 0 2.26 -0.45 t1.96 -1.25 l0.84 0.9 q-1.04 0.96 -2.38 1.52 t-2.74 0.56 q-1.98 0 -3.64 -0.96 t-2.63 -2.6 t-0.97 -3.58 t0.98 -3.56 t2.65 -2.57 t3.65 -0.95 q1.42 0 2.74 0.53 t2.32 1.47 l-0.82 0.96 q-0.84 -0.82 -1.94 -1.28 z M198.43000000000004 17.68 q1.17 1.2 3.25 1.2 t3.24 -1.2 t1.16 -3.36 l0 -8.32 l1.38 0 l0 8.32 q0 2.72 -1.53 4.26 t-4.25 1.54 t-4.26 -1.54 t-1.54 -4.26 l0 -8.32 l1.38 0 l0 8.32 q0 2.16 1.17 3.36 z M220.76000000000002 20 l-3.02 -4.56 q-0.64 0.04 -0.98 0.04 l-3.84 0 l0 4.52 l-1.38 0 l0 -13.98 l5.22 0 q2.62 0 4.05 1.21 t1.43 3.43 q0 1.74 -0.84 2.9 t-2.4 1.62 l3.36 4.82 l-1.6 0 z M216.76000000000002 14.24 q2 0 3.08 -0.91 t1.08 -2.63 q0 -1.68 -1.08 -2.56 t-3.08 -0.88 l-3.84 0 l0 6.98 l3.84 0 z M236.44000000000005 20 l-1.66 -3.72 l-7.76 0 l-1.64 3.72 l-1.48 0 l6.3 -13.98 l1.44 0 l6.3 13.98 l-1.5 0 z M227.56000000000003 15.04 l6.68 0 l-3.36 -7.56 z M238.26000000000005 6 l10.62 0 l0 1.26 l-4.62 0 l0 12.74 l-1.38 0 l0 -12.74 l-4.62 0 l0 -1.26 z M251.30000000000004 6.02 l9.36 0 l0 1.24 l-7.98 0 l0 5 l7.14 0 l0 1.24 l-7.14 0 l0 5.26 l8.24 0 l0 1.24 l-9.62 0 l0 -13.98 z"></path></g></svg>