<svg xmlns="http://www.w3.org/2000/svg" version="1.1" xmlns:xlink="http://www.w3.org/1999/xlink" xmlns:svgjs="http://svgjs.com/svgjs" width="512" height="512" x="0" y="0" viewBox="0 0 512 512" style="enable-background:new 0 0 512 512" xml:space="preserve" class=""><g><g id="flat"><path d="m168 80h96v64h-96z" fill="#eaeae8" data-original="#eaeae8" class=""></path><path d="m216 488a48 48 0 0 1 -48-48v-304h96v104h-8v168h8v32a48 48 0 0 1 -48 48z" fill="#d32b39" data-original="#d32b39" class=""></path><path d="m200 240h64v168h-64z" fill="#cbcbcb" data-original="#cbcbcb" class=""></path><path d="m232 272h32v32h-32z" fill="#eaeae8" data-original="#eaeae8" class=""></path><path d="m232 344h32v32h-32z" fill="#eaeae8" data-original="#eaeae8" class=""></path><path d="m168 88h96v24h-96z" fill="#cbcbcb" data-original="#cbcbcb" class=""></path><path d="m192 184a8 8 0 0 1 -8-8v-8a8 8 0 0 1 16 0v8a8 8 0 0 1 -8 8z" fill="#ee5e5b" data-original="#ee5e5b"></path><path d="m192 224a8 8 0 0 1 -8-8v-16a8 8 0 0 1 16 0v16a8 8 0 0 1 -8 8z" fill="#ee5e5b" data-original="#ee5e5b"></path><path d="m152 24h128v64h-128z" fill="#0bafea" data-original="#0bafea"></path><g fill="#0a9acd"><path d="m176 24h16v64h-16z" fill="#0a9acd" data-original="#0a9acd" class=""></path><path d="m208 24h16v64h-16z" fill="#0a9acd" data-original="#0a9acd" class=""></path><path d="m240 24h16v64h-16z" fill="#0a9acd" data-original="#0a9acd" class=""></path></g><circle cx="316" cy="412" fill="#fbb540" r="76" data-original="#fbb540"></circle><path d="m316.376 448q-.736 0-1.465-.033c-22.117-1-34.31-26.305-22.029-44.726l23.494-35.241 23.494 35.241c12.28 18.421.087 43.73-22.029 44.726q-.729.033-1.465.033z" fill="#e82f3e" data-original="#e82f3e"></path></g></g></svg>