<svg width="471.7729116014384" height="355.078125" viewBox="0 0 350 263.4261965744052" class="css-1j8o68f"><defs id="SvgjsDefs1276"></defs><g id="SvgjsG1277" featurekey="1p4tPl-0" transform="matrix(2.358903998296381,0,0,2.358903998296381,58.29099094324383,-22.40958798381562)" fill="#eaa159"><path xmlns="http://www.w3.org/2000/svg" d="M77.327,15.876L65.591,9.5l-2.51,5.703l10.604,5.754L77.327,15.876z M70.118,34.206c-1.268-0.681-2.707-1.04-4.125-1.04  c-3.186,0-6.117,1.732-7.639,4.528c-2.277,4.201-0.723,9.469,3.479,11.757c4.037,2.196,9.547,0.571,11.757-3.478  c1.104-2.025,1.351-4.378,0.71-6.603C73.624,37.153,72.151,35.312,70.118,34.206z M68.448,43.155  c-0.717,1.316-2.503,1.84-3.819,1.132c-1.364-0.745-1.868-2.462-1.132-3.824c0.498-0.907,1.452-1.473,2.489-1.473  c0.456,0,0.927,0.121,1.337,0.337c0.661,0.363,1.139,0.965,1.356,1.681C68.892,41.729,68.81,42.495,68.448,43.155z M57.421,50.397  c-3.703-3.712-4.761-9.529-2.135-14.369c2.141-3.928,6.24-6.357,10.707-6.357c0.852,0,1.697,0.14,2.529,0.313l3.301-6.061  l-10.277-5.587L41.149,55.845l10.283,5.584L57.421,50.397z M45.793,62.131l-3.866-2.103l-1.787,3.297l3.859,2.098L45.793,62.131z   M78.017,84.256l-3.369-0.699l2.031-20.314c0-4.378-0.865-8.62-2.488-12.545c-1.419,1.274-3.137,2.237-5.013,2.754  c1.187,3.095,1.882,6.373,1.882,9.791c0,7.333-2.857,14.226-8.04,19.417c-0.313,0.317-0.655,0.598-0.989,0.897H44.401v-6.983h6.984  v-3.955H27.633v3.955h6.983v6.983H20.649V89.5h57.701L78.017,84.256z"></path></g><g id="SvgjsG1278" featurekey="dYASrj-0" transform="matrix(3.7329350685323206,0,0,3.7329350685323206,-4.479520925237387,187.72227082136664)" fill="#017bfd"><path d="M8.7 16.92 c0.32 0 0.5 0.18 0.5 0.5 l0 2.08 c0 0.32 -0.18 0.5 -0.5 0.5 l-5.9 0 l-1.1 0 c-0.32 0 -0.5 -0.18 -0.5 -0.5 l0 -13 c0 -0.32 0.18 -0.5 0.5 -0.5 l2.2 0 c0.32 0 0.5 0.18 0.5 0.5 l0 10.42 l4.3 0 z M11 8.8 c-0.32 0 -0.5 -0.18 -0.5 -0.5 l0 -1.8 c0 -0.32 0.18 -0.5 0.5 -0.5 l2 0 c0.32 0 0.5 0.18 0.5 0.5 l0 1.8 c0 0.32 -0.18 0.5 -0.5 0.5 l-2 0 z M11 20 c-0.32 0 -0.5 -0.18 -0.5 -0.5 l0 -9 c0 -0.32 0.18 -0.5 0.5 -0.5 l2 0 c0.32 0 0.5 0.18 0.5 0.5 l0 9 c0 0.32 -0.18 0.5 -0.5 0.5 l-2 0 z M20.28 8.58 c-0.82 0 -1.34 0.46 -1.34 1.42 l1.36 0 c0.32 0 0.5 0.18 0.5 0.5 l0 1.88 c0 0.32 -0.18 0.5 -0.5 0.5 l-1.36 0 l0 6.62 c0 0.32 -0.18 0.5 -0.5 0.5 l-2 0 c-0.32 0 -0.5 -0.18 -0.5 -0.5 l0 -6.62 l-0.84 0 c-0.32 0 -0.5 -0.18 -0.5 -0.5 l0 -1.88 c0 -0.32 0.18 -0.5 0.5 -0.5 l0.84 0 c0 -2.66 1.38 -4.3 4.36 -4.3 c0.32 0 0.5 0.2 0.5 0.52 l0 1.88 c0 0.32 -0.18 0.48 -0.52 0.48 z M26.76 9.72 c2.92 0 5.04 2.26 5.04 5.28 c0 0.26 -0.02 0.5 -0.04 0.74 c-0.04 0.32 -0.24 0.46 -0.54 0.46 l-2.44 0 l-4.2388 0 c0.3634 1.1882 1.2966 1.66 2.3388 1.66 c0.56 0 1.12 -0.2 1.48 -0.5 c0.2 -0.16 0.36 -0.26 0.62 -0.26 l1.92 -0.02 c0.36 0 0.56 0.24 0.4 0.56 c-0.78 1.74 -2.42 2.64 -4.46 2.64 c-3.32 0 -5.44 -2.3 -5.44 -5.28 s2.2 -5.28 5.36 -5.28 z M24.5286 13.92 l4.285 0 c-0.3092 -1.138 -1.1914 -1.54 -2.0736 -1.54 c-1.1244 0 -1.9024 0.5426 -2.2114 1.54 z M37.94 20.28 c-2.62 0 -4.92 -1.26 -5.16 -4.16 c-0.02 -0.34 0.18 -0.52 0.5 -0.52 l2.2 0 c0.3 0 0.46 0.16 0.52 0.48 c0.16 0.72 0.76 1.08 1.94 1.08 c1.3 0 1.72 -0.5 1.72 -1.08 c0 -0.82 -1 -1.18 -2.22 -1.6 c-1.98 -0.68 -4.48 -1.5 -4.48 -4.56 c0 -2.8 2.28 -4.2 4.66 -4.2 c2.34 0 4.58 1.26 4.82 4.16 c0.02 0.34 -0.18 0.52 -0.5 0.52 l-2.2 0 c-0.3 0 -0.46 -0.16 -0.52 -0.48 c-0.16 -0.74 -0.68 -1.08 -1.6 -1.08 c-1 0 -1.46 0.5 -1.46 1.08 c0 0.84 0.82 1.24 1.98 1.66 c2 0.7 4.72 1.42 4.72 4.5 c0 2.8 -2.24 4.2 -4.92 4.2 z M49.16 20.28 c-2.94 0 -5.3 -2.3 -5.3 -5.28 s2.36 -5.28 5.3 -5.28 s5.3 2.3 5.3 5.28 s-2.36 5.28 -5.3 5.28 z M49.16 17.36 c1.3 0 2.3 -0.94 2.3 -2.36 s-1 -2.36 -2.3 -2.36 s-2.3 0.94 -2.3 2.36 s1 2.36 2.3 2.36 z M64.2 10 c0.32 0 0.5 0.18 0.5 0.5 l0 9 c0 0.32 -0.18 0.5 -0.5 0.5 l-2 0 c-0.32 0 -0.5 -0.18 -0.5 -0.5 l0 -0.4134 c-0.47 0.695 -1.3214 1.1934 -2.6 1.1934 c-1.86 0 -3.2 -1.44 -3.2 -3.94 l0 -5.84 c0 -0.32 0.18 -0.5 0.5 -0.5 l2 0 c0.32 0 0.5 0.18 0.5 0.5 l0 5.58 c0 1 0.58 1.44 1.34 1.44 c0.9 0 1.46 -0.5 1.46 -1.68 l0 -5.34 c0 -0.32 0.18 -0.5 0.5 -0.5 l2 0 z M71.97999999999999 9.84 c0.34 -0.06 0.52 0.1598 0.52 0.4798 l0 2.36 c0 0.32 -0.14 0.48 -0.4 0.48 c-1.12 -0.04 -2.2 0.52 -2.2 2.12 l0 4.22 c0 0.32 -0.18 0.5 -0.5 0.5 l-2 0 c-0.32 0 -0.5 -0.18 -0.5 -0.5 l0 -9 c0 -0.32 0.18 -0.5 0.5 -0.5 l2 0 c0.32 0 0.5 0.18 0.5 0.5 l0 1.081 c0.2984 -1.004 1.0864 -1.5918 2.08 -1.7408 z M83.10000000000001 16.2 c0.34 0 0.54 0.22 0.42 0.56 c-0.62 2.08 -2.58 3.52 -4.92 3.52 c-3.04 0 -5.3 -2.3 -5.3 -5.28 s2.26 -5.28 5.3 -5.28 c2.34 0 4.3 1.44 4.92 3.52 c0.12 0.34 -0.08 0.56 -0.42 0.56 l-2.2 0 c-0.26 0 -0.44 -0.12 -0.6 -0.34 c-0.36 -0.5 -0.98 -0.78 -1.7 -0.78 c-1.3 0 -2.3 0.94 -2.3 2.32 s1 2.32 2.3 2.32 c0.72 0 1.34 -0.28 1.7 -0.76 c0.16 -0.24 0.32 -0.36 0.6 -0.36 l2.2 0 z M89.92 9.72 c2.92 0 5.04 2.26 5.04 5.28 c0 0.26 -0.02 0.5 -0.04 0.74 c-0.04 0.32 -0.24 0.46 -0.54 0.46 l-2.44 0 l-4.2388 0 c0.3634 1.1882 1.2966 1.66 2.3388 1.66 c0.56 0 1.12 -0.2 1.48 -0.5 c0.2 -0.16 0.36 -0.26 0.62 -0.26 l1.92 -0.02 c0.36 0 0.56 0.24 0.4 0.56 c-0.78 1.74 -2.42 2.64 -4.46 2.64 c-3.32 0 -5.44 -2.3 -5.44 -5.28 s2.2 -5.28 5.36 -5.28 z M87.68860000000001 13.92 l4.285 0 c-0.3092 -1.138 -1.1914 -1.54 -2.0736 -1.54 c-1.1244 0 -1.9024 0.5426 -2.2114 1.54 z"></path></g></svg>