<svg xmlns="http://www.w3.org/2000/svg" version="1.1" xmlns:xlink="http://www.w3.org/1999/xlink" xmlns:svgjs="http://svgjs.com/svgjs" width="512" height="512" x="0" y="0" viewBox="0 0 512 512" style="enable-background:new 0 0 512 512" xml:space="preserve" class=""><circle r="256" cx="256" cy="256" fill="#4e8aff" shape="circle"></circle><g transform="matrix(0.6,0,0,0.6,102.39974060058594,102.39997634887695)"><g><path d="m286.591 155.064c4.143 0 7.5-3.357 7.5-7.5v-6.479c0-4.143-3.357-7.5-7.5-7.5s-7.5 3.357-7.5 7.5v6.479c0 4.143 3.357 7.5 7.5 7.5z" fill="#ffffff" data-original="#000000" class=""></path><path d="m236.081 141.085c0-4.143-3.357-7.5-7.5-7.5s-7.5 3.357-7.5 7.5v6.479c0 4.143 3.357 7.5 7.5 7.5s7.5-3.357 7.5-7.5z" fill="#ffffff" data-original="#000000" class=""></path><path d="m278.193 188.528c3.327-2.468 4.023-7.165 1.557-10.492-2.468-3.328-7.166-4.024-10.492-1.557-8.072 5.986-15.271 5.986-23.344 0-3.328-2.467-8.024-1.769-10.492 1.557-2.467 3.327-1.771 8.024 1.557 10.492 6.741 4.999 13.674 7.498 20.607 7.498s13.866-2.499 20.607-7.498z" fill="#ffffff" data-original="#000000" class=""></path><path d="m406.379 428.104c-.347-3.775-1.157-11.38-1.174-11.528-6.473-58.055-20.231-99.431-42.064-126.494-.216-.268-.444-.523-.655-.793-.095-.121-.195-.24-.296-.358-17.362-20.989-39.421-33.223-68.928-38.141v-21.565c5.267-3.075 10.267-6.771 14.799-11.017 7.287-6.828 15.419-16.951 20.684-31.048h11.658c15.786 0 28.63-12.844 28.63-28.63 0-8.012-3.315-15.262-8.641-20.462v-40.528c0-16.797-4.343-33.366-12.559-47.918-2.036-3.606-6.611-4.878-10.219-2.844-3.606 2.037-4.88 6.612-2.844 10.219 6.948 12.306 10.621 26.325 10.621 40.543v32.814c-1.622-.286-3.287-.444-4.989-.444h-8.013c-.014-.084-.026-.171-.041-.255-2.032-11.831-11.445-21.284-23.423-23.524-31.233-5.841-53.601-15.777-70.39-31.27-5.727-5.284-14.293-6.175-20.828-2.167-13.693 8.399-29.524 24.928-34.951 57.216h-8.196c-1.633 0-3.231.145-4.79.409v-54.749c0-14.806 12.05-26.851 26.86-26.851h2.561c2.782 0 5.335-1.54 6.633-4 9.674-18.331 28.54-29.719 49.238-29.719h7.801c18.773 0 36.46 6.139 51.147 17.753 3.252 2.569 7.968 2.018 10.535-1.23 2.569-3.249 2.019-7.966-1.23-10.535-17.364-13.731-38.268-20.988-60.453-20.988h-7.801c-24.751 0-47.438 12.824-60.249 33.759-22.24.956-40.041 19.345-40.041 41.812v62.315c-5.435 5.212-8.829 12.537-8.829 20.645 0 15.786 12.839 28.63 28.619 28.63h11.865c5.265 14.096 13.397 24.219 20.685 31.048 4.472 4.19 9.399 7.85 14.591 10.9v21.694c-39.505 6.639-66.738 26.928-85.343 63.454-1.881 3.691-.412 8.207 3.278 10.087 1.091.556 2.253.819 3.398.819 2.73 0 5.364-1.497 6.688-4.098 2.95-5.792 6.119-11.089 9.525-15.937 4.695 5.431 8.656 11.609 11.801 18.479 1.197 2.602 1.452 5.521.715 8.225-10.584 38.915-16.748 93-18.815 165.168h-29.517c-.85 0-1.472-.449-1.844-.826-.709-.717-1.108-1.763-1.096-2.875.628-59.753 6.212-106.043 17.071-141.514 1.212-3.961-1.016-8.154-4.977-9.367-3.959-1.209-8.154 1.015-9.367 4.977-11.285 36.863-17.084 84.537-17.728 145.74-.058 5.087 1.921 10.038 5.429 13.586 3.366 3.404 7.81 5.279 12.511 5.279h218.15c5.532 0 10.701-2.19 14.554-6.168 3.83-3.954 5.88-9.184 5.702-14.751 0 0-1.236-29.362-1.247-29.57 0 0 16.56-.024 17.171-.061 17.317-1.051 30.19-16.23 28.618-33.346zm-65.977-283.194c7.516 0 13.63 6.11 13.63 13.62 0 7.516-6.114 13.63-13.63 13.63h-7.567c.968-5.389 1.52-11.207 1.52-17.489 0-3.318-.095-6.576-.284-9.761zm-165.84 27.25c-7.51 0-13.619-6.114-13.619-13.63 0-7.51 6.109-13.62 13.619-13.62h6.541c-.183 3.135-.287 6.379-.287 9.761 0 6.282.552 12.1 1.52 17.489zm24.52 5.531c-.043-.158-.093-.313-.143-.468-2.076-6.505-3.124-14.034-3.124-22.552 0-33.333 10.282-57.259 29.734-69.189.327-.2.701-.298 1.085-.298.604 0 1.23.241 1.729.701 18.953 17.49 43.676 28.608 77.804 34.99 5.842 1.093 10.422 5.642 11.397 11.319.332 1.934.614 3.923.854 5.953.002.025.006.05.009.075.613 5.208.928 10.714.928 16.448 0 8.54-1.073 16.078-3.138 22.601-.038.119-.075.237-.109.358-4.171 13.816-11.666 23.412-18.304 29.633-11.371 10.654-26.782 17.273-40.218 17.273-13.437 0-28.847-6.619-40.219-17.273-6.629-6.211-14.111-15.788-18.285-29.571zm58.504 61.845c6.783 0 13.796-1.233 20.676-3.516v26.68c0 4.014-2.903 12.961-8.285 21.637-5.901 9.515-10.966 12.593-12.494 12.593-1.526 0-6.589-3.078-12.492-12.594-5.384-8.678-8.288-17.624-8.288-21.636v-26.751c6.946 2.326 14.031 3.587 20.883 3.587zm83.996 257.464h-173.626c1.254-43.428 3.995-80.095 8.297-110.651 2.888 2.95 6.908 4.788 11.354 4.788h40.584c8.77 0 15.903-7.134 15.903-15.903v-17.441c0-8.77-7.134-15.903-15.903-15.903h-40.584c-1.037 0-2.049.107-3.031.298.542-2.182 1.094-4.327 1.662-6.415 1.66-6.094 1.105-12.642-1.557-18.424-4.116-8.992-9.441-17.02-15.839-23.985 13.805-14.497 31.052-23.306 53.08-27.372 1.074 8.759 6.013 19.31 10.321 26.252 5.571 8.981 14.473 19.687 25.238 19.687 17.267 0 33.498-29.546 35.556-45.971 18.46 3.321 37.03 10.484 53.142 27.574-6.49 7.107-11.865 15.296-15.985 24.463-2.533 5.618-3.056 11.922-1.472 17.748.337 1.243.657 2.52.983 3.786h-48.315c-8.276 0-15.01 6.733-15.01 15.01v43.002h-10.835c-10.953 0-19.863 8.911-19.863 19.864v24.242c0 10.952 8.91 19.862 19.863 19.862h90.017c.031.582 1.203 27.586 1.281 30.05.098 2.969-2.285 5.439-5.261 5.439zm-154.878-121.767v-17.441c0-.498.405-.903.903-.903h40.584c.498 0 .903.405.903.903v17.441c0 .498-.405.903-.903.903h-40.584c-.498.001-.903-.405-.903-.903zm114.305 34.672c-1.329-7.028-7.506-12.363-14.916-12.363h-4.705v-43.012h64.025v55.375zm-14.916 2.637c.104 0 .189.085.189.189v33.779h-30.735c-2.682 0-4.863-2.182-4.863-4.862v-24.242c0-2.683 2.182-4.864 4.863-4.864zm15.189 33.969v-21.605h51.533c.032 0 .064.005.097.005s.064-.004.097-.005h15.878c4.143 0 7.5-3.357 7.5-7.5s-3.357-7.5-7.5-7.5h-8.475v-55.366c0-8.276-6.733-15.01-15.01-15.01h-.222c-.639-2.605-1.296-5.189-1.981-7.718-.675-2.479-.437-5.196.674-7.658 3.141-6.989 7.129-13.284 11.879-18.822 15.879 22.678 28.412 57.894 34.544 112.903.445 4.004.816 7.665 1.137 11.204.411 4.446-1.017 8.708-4.018 11.999-2.989 3.277-7.074 5.072-11.493 5.072-15.678.001-58.968.001-74.64.001z" fill="#ffffff" data-original="#000000" class=""></path></g></g></svg>