<svg xmlns="http://www.w3.org/2000/svg" version="1.1" xmlns:xlink="http://www.w3.org/1999/xlink" xmlns:svgjs="http://svgjs.com/svgjs" width="512" height="512" x="0" y="0" viewBox="0 0 512 512" style="enable-background:new 0 0 512 512" xml:space="preserve" class=""><circle r="256" cx="256" cy="256" fill="#1b68ff" shape="circle"></circle><g transform="matrix(0.7,0,0,0.7,76.80029525756837,76.80023533701899)">
<g>
	<g>
		<path style="" d="M137.775,230.182c15.99,50.046,62.884,86.295,118.225,86.295
			c55.343,0,102.235-36.249,118.226-86.295h-0.009c3.808-11.917,5.871-24.614,5.871-37.793c0-2.792-0.092-5.562-0.275-8.308
			l-0.009-0.001c-1.104-16.69-5.51-32.479-12.569-46.72c-73.044-5.925-147.06,9.555-219.699-5.277
			c-6.1,10.946-10.591,22.911-13.157,35.573c-1.041,5.164-1.765,10.444-2.147,15.818l-0.007-0.001
			c-0.209,2.944-0.316,5.917-0.316,8.914C131.912,205.567,133.968,218.266,137.775,230.182z" fill="#ffddae" data-original="#ffddae" class=""></path>
		<path style="" d="M133.652,230.182h4.124c-3.807-11.916-5.863-24.615-5.863-37.793c0-2.997,0.106-5.97,0.316-8.914
			c0.382-5.374,1.106-10.654,2.154-15.817h-0.73c-6.521,0-12.612,1.84-17.732,5.002c-9.038,5.582-15.05,15.284-15.05,26.26
			C100.868,216.114,115.621,230.182,133.652,230.182z" fill="#ffddae" data-original="#ffddae" class=""></path>
		<path style="" d="M380.09,192.389c0,13.178-2.055,25.877-5.863,37.793h4.124c18.031,0,32.782-14.068,32.782-31.262
			c0-8.8-3.864-16.781-10.054-22.477c-5.905-5.433-13.926-8.786-22.728-8.786h-0.73C379.238,175.649,380.09,183.92,380.09,192.389z" fill="#ffddae" data-original="#ffddae" class=""></path>
		<path style="" d="M297.476,316.477H256h-41.474c0,22.902,18.573,41.475,41.475,41.475
			C278.903,357.952,297.476,339.379,297.476,316.477z" fill="#ffddae" data-original="#ffddae" class=""></path>
	</g>
	<g>
		<path style="" d="M379.815,184.081c-0.369-5.583-1.108-11.064-2.194-16.423h0.73c8.802,0,16.824,3.353,22.727,8.787
			c24.537-23.314,18.164-91.496-19.123-91.496c-1.389,0-2.756,0.093-4.099,0.268c-25.358-41.36-69.427-70.477-121.475-74.7
			C183.515,4.605,118.213,49.36,95.148,115.29c3.637,1.646,7.279,3.182,10.926,4.615c0.001-0.003,0.001-0.007,0.002-0.01
			c13.758,5.406,27.583,9.347,41.458,12.18c0.002,0.001,0.005,0.001,0.007,0.001c-0.001,0.003-0.003,0.005-0.004,0.007
			c72.639,14.831,146.655-0.648,219.699,5.277c7.06,14.24,11.465,30.029,12.569,46.72L379.815,184.081z" fill="#447de2" data-original="#447de2" class=""></path>
		<path style="" d="M134.381,167.656c2.566-12.663,7.057-24.627,13.157-35.573c-0.002,0-0.005-0.001-0.007-0.001
			C141.432,143.028,136.941,154.993,134.381,167.656L134.381,167.656z M115.92,172.66c-10.041-12.853-13.323-34.291-9.844-52.756
			c13.757,5.405,27.582,9.344,41.456,12.178c0.001-0.003,0.003-0.005,0.004-0.007l0.007,0.001l-0.004,0.007
			c-6.1,10.946-10.591,22.911-13.157,35.573h-0.73C127.131,167.656,121.039,169.496,115.92,172.66z" fill="#447de2" data-original="#447de2" class=""></path>
	</g>
	<g>
		<path style="" d="M297.476,316.477c0,22.902-18.573,41.475-41.475,41.475h80.503v-41.475H297.476z" fill="#e4e6ee" data-original="#e4e6ee" class=""></path>
		<path style="" d="M256.001,357.952c-22.902,0-41.475-18.573-41.475-41.475h-41.326v41.475h81.652H256.001z" fill="#e4e6ee" data-original="#e4e6ee" class=""></path>
	</g>
	<path style="" d="M254.851,357.952h-81.652v-41.475h-6.549c-46.799,0-85.087,38.289-85.087,85.088v100.434h290.288
		h58.588V401.564c0-46.799-38.288-85.088-85.088-85.088h-8.847v41.475h-80.503H254.851z" fill="#42d292" data-original="#42d292" class=""></path>
	<g>
		<path style="" d="M157.025,165.658h67.751v25.695c0,14.133-11.563,25.696-25.696,25.696H182.72
			c-14.133,0-25.695-11.563-25.695-25.696V165.658z" fill="#e4e6ee" data-original="#e4e6ee" class=""></path>
		<path style="" d="M287.227,165.658h67.751v25.695c0,14.133-11.563,25.696-25.695,25.696h-16.359
			c-14.133,0-25.695-11.563-25.695-25.696L287.227,165.658L287.227,165.658z" fill="#e4e6ee" data-original="#e4e6ee" class=""></path>
	</g>
</g>
<path d="M254.851,428.843c-5.522,0-10,4.478-10,10v0.545c0,5.522,4.478,10,10,10c5.523,0,10-4.478,10-10v-0.545
	C264.851,433.322,260.373,428.843,254.851,428.843z" fill="#000000" data-original="#000000" class=""></path>
<path d="M345.351,306.477h-18.976c24.884-15.405,44.376-38.717,54.946-66.405c22.208-1.478,39.813-19.364,39.813-41.152
	c0-8.309-2.569-16.046-6.967-22.529c13.793-19.956,14.358-51.375,5.999-72.309c-5.418-13.565-14.343-22.891-25.371-26.908
	c3.038-2.482,6.709-4.199,10.696-4.838c5.453-0.875,9.165-6.005,8.29-11.458c-0.875-5.454-6.004-9.159-11.458-8.29
	c-9.866,1.582-18.723,6.639-25.166,13.915c-12.288-16.232-27.516-30.248-44.716-41.034c-22.542-14.137-48.565-22.753-75.251-24.918
	c-75.85-6.138-146.373,39.67-171.48,111.439c-1.71,4.89,0.597,10.277,5.317,12.412c1.361,0.616,2.723,1.199,4.085,1.785
	c-1.49,15.92,1.306,31.921,7.635,44.246c-7.349,7.413-11.878,17.447-11.878,28.489c0,21.788,17.604,39.674,39.812,41.152
	c10.57,27.687,30.061,51,54.946,66.405h-18.977c-52.432,0-95.087,42.655-95.087,95.087V502c0,5.523,4.478,10,10,10h348.876
	c5.523,0,10-4.477,10-10V401.564C440.439,349.133,397.783,306.477,345.351,306.477z M183.199,326.477h22.309
	c1.576,7.971,5.001,15.281,9.804,21.475h-32.113L183.199,326.477L183.199,326.477z M285.838,326.477
	c-4.189,12.466-15.977,21.475-29.837,21.475s-25.647-9.008-29.837-21.475H285.838z M306.493,326.477h20.01v21.475h-29.815
	C301.492,341.758,304.917,334.448,306.493,326.477z M387.556,218.363c1.657-8.406,2.534-17.089,2.534-25.973
	c0-3.998-0.187-7.996-0.546-11.977c1.583,0.837,3.048,1.845,4.367,2.999c0.26,0.268,0.533,0.516,0.814,0.749
	c3.962,3.827,6.407,9.031,6.407,14.76C401.133,207.587,395.545,215.055,387.556,218.363z M255.572,20.485
	c46.697,3.787,89.224,29.939,113.758,69.958c0.026,0.043,0.06,0.079,0.087,0.121c0.224,0.354,0.466,0.697,0.733,1.021
	c0.047,0.057,0.098,0.108,0.146,0.163c0.239,0.277,0.494,0.539,0.763,0.789c0.075,0.069,0.148,0.139,0.224,0.206
	c0.319,0.279,0.653,0.543,1.01,0.781c0.03,0.02,0.062,0.036,0.092,0.056c0.322,0.21,0.66,0.399,1.009,0.573
	c0.104,0.052,0.208,0.102,0.314,0.15c0.319,0.145,0.648,0.275,0.988,0.388c0.074,0.024,0.145,0.056,0.219,0.079
	c0.015,0.004,0.029,0.011,0.044,0.016c0.402,0.122,0.806,0.211,1.209,0.281c0.045,0.008,0.088,0.017,0.133,0.024
	c0.443,0.07,0.885,0.108,1.324,0.118c0.034,0.001,0.067,0.003,0.101,0.004c0.044,0.001,0.088,0.005,0.132,0.005
	c0.398,0,0.793-0.032,1.184-0.079c0.036-0.004,0.072-0.001,0.108-0.006c0.929-0.122,1.872-0.184,2.803-0.184
	c10.766,0,16.62,9,19.635,16.55c6.459,16.177,4.984,38.213-2.529,51.333c-4.099-2.197-8.61-3.758-13.39-4.557
	c-2.297-8.758-5.469-17.274-9.476-25.356c-0.032-0.064-0.071-0.123-0.104-0.186c-0.09-0.173-0.185-0.342-0.285-0.509
	c-0.078-0.13-0.158-0.258-0.242-0.384c-0.09-0.135-0.183-0.268-0.279-0.398c-0.104-0.142-0.211-0.282-0.322-0.417
	c-0.088-0.107-0.179-0.211-0.271-0.314c-0.126-0.142-0.254-0.281-0.387-0.414c-0.094-0.094-0.191-0.184-0.288-0.274
	c-0.137-0.127-0.276-0.252-0.419-0.37c-0.111-0.092-0.227-0.179-0.342-0.267c-0.135-0.102-0.271-0.203-0.411-0.298
	c-0.138-0.094-0.28-0.181-0.424-0.268c-0.126-0.076-0.251-0.152-0.379-0.222c-0.163-0.089-0.33-0.171-0.498-0.252
	c-0.119-0.057-0.238-0.113-0.359-0.165c-0.176-0.076-0.355-0.144-0.535-0.21c-0.126-0.046-0.252-0.091-0.38-0.131
	c-0.173-0.055-0.348-0.104-0.525-0.149c-0.149-0.039-0.298-0.075-0.449-0.106c-0.157-0.033-0.316-0.062-0.476-0.087
	c-0.179-0.029-0.359-0.052-0.54-0.072c-0.079-0.008-0.155-0.025-0.234-0.031c-30.835-2.501-62.05-1.254-92.235-0.048
	c-43.156,1.724-84.622,3.369-125.378-4.838c-0.617-0.187-1.243-0.313-1.871-0.377c-12.952-2.707-25.834-6.438-38.678-11.485
	c-0.009-0.004-0.019-0.007-0.028-0.011c-0.636-0.25-1.274-0.487-1.91-0.744C132.501,51.736,191.904,15.303,255.572,20.485z
	 M132.997,138.989c-2.711,6.249-4.939,12.699-6.668,19.285c-2.229,0.372-4.398,0.911-6.495,1.604
	c-3.38-7.286-5.182-16.66-5.077-26.207C120.828,135.691,126.91,137.45,132.997,138.989z M110.868,198.92
	c0-7.228,3.888-13.621,9.811-17.465c0.294-0.16,0.58-0.34,0.862-0.532c0.301-0.177,0.607-0.348,0.918-0.512
	c-0.357,3.976-0.548,7.972-0.548,11.978c0,8.885,0.877,17.567,2.534,25.973C116.458,215.055,110.868,207.587,110.868,198.92z
	 M141.912,192.389c0-17.022,3.823-33.86,11.102-49.119c41.434,7.329,82.975,5.683,123.592,4.059
	c27.668-1.106,56.219-2.246,84.03-0.424c6.191,14.255,9.452,29.861,9.452,45.484c0,62.908-51.181,114.088-114.089,114.088
	S141.912,255.296,141.912,192.389z M420.439,491.999h-38.587v-74.072c0-5.522-4.478-10-10-10s-10,4.478-10,10v74.072H150.151
	v-74.072c0-5.522-4.478-10-10-10c-5.523,0-10,4.478-10,10v74.072H91.563v-90.435c0-40.245,31.829-73.189,71.636-74.999v31.387
	c0,5.522,4.478,10,10,10h71.652v37.529c0,5.522,4.478,10,10,10c5.523,0,10-4.478,10-10v-37.529h71.652c5.522,0,10-4.478,10-10
	v-31.445c40.872,0.621,73.935,34.041,73.935,75.058v90.434H420.439z" fill="#000000" data-original="#000000" class=""></path>
<path d="M175.005,76.375c1.912,0,3.846-0.548,5.554-1.691c21.231-14.211,46.899-21.066,72.299-19.306
	c5.517,0.394,10.287-3.773,10.668-9.283c0.383-5.51-3.773-10.286-9.283-10.668c-29.798-2.075-59.911,5.971-84.809,22.638
	c-4.59,3.071-5.819,9.283-2.747,13.872C168.616,74.818,171.781,76.375,175.005,76.375z" fill="#000000" data-original="#000000" class=""></path>
<path d="M280.78,61.291l0.226,0.079c1.095,0.384,2.211,0.566,3.309,0.566c4.129,0,7.993-2.577,9.436-6.694
	c1.828-5.211-0.916-10.918-6.128-12.745l-0.226-0.079c-5.214-1.827-10.918,0.916-12.745,6.128
	C272.824,53.756,275.568,59.463,280.78,61.291z" fill="#000000" data-original="#000000" class=""></path>
<path d="M272.866,239.571c0-5.522-4.478-10-10-10h-10.81c-0.424,0-0.81-0.387-0.81-0.811v-27.406h27.415
	c4.336,14.829,18.048,25.696,34.259,25.696h16.359c19.683,0,35.695-16.014,35.695-35.696v-25.695c0-5.522-4.478-10-10-10h-67.751
	c-5.523,0-10,4.478-10,10v15.695h-42.451v-15.695c0-5.522-4.477-10-10-10h-67.751c-5.522,0-10,4.478-10,10v25.695
	c0,19.683,16.013,35.696,35.695,35.696h16.359c14.144,0,26.392-8.269,32.166-20.227v21.937c0,11.475,9.335,20.811,20.81,20.811
	h10.81C268.388,249.571,272.866,245.093,272.866,239.571z M297.227,175.658h47.751v15.695c0,8.655-7.041,15.696-15.695,15.696
	h-16.359c-8.654,0-15.695-7.041-15.695-15.696L297.227,175.658L297.227,175.658z M214.776,191.354
	c0,8.655-7.041,15.696-15.695,15.696h-16.359c-8.654,0-15.695-7.041-15.695-15.696v-15.695h47.751v15.695H214.776z" fill="#000000" data-original="#000000" class=""></path>
<g>
</g>
<g>
</g>
<g>
</g>
<g>
</g>
<g>
</g>
<g>
</g>
<g>
</g>
<g>
</g>
<g>
</g>
<g>
</g>
<g>
</g>
<g>
</g>
<g>
</g>
<g>
</g>
<g>
</g>
</g></svg>