<svg xmlns="http://www.w3.org/2000/svg" version="1.1" xmlns:xlink="http://www.w3.org/1999/xlink" xmlns:svgjs="http://svgjs.com/svgjs" width="512" height="512" x="0" y="0" viewBox="0 0 96 96" style="enable-background:new 0 0 512 512" xml:space="preserve" class=""><circle r="48" cx="48" cy="48" fill="#1b68ff" shape="circle"></circle><g transform="matrix(0.7,0,0,0.7,14.391724526882172,14.401372228749096)"><g id="Vaccine"><path d="m79.37 74.44-3.76 3.75-2.61-2.62a3 3 0 0 0 -3.25-.63l-4.65 2a4.34 4.34 0 0 1 -4.75-.94l-45.66-45.69 16.79-16.79 45.66 45.66a4.32 4.32 0 0 1 .93 4.74l-2 4.65a3 3 0 0 0 .63 3.24z" fill="#aec8f6" data-original="#aec8f6"></path><path d="m78.07 63.92c-2.06 4.9-2 4.74-2 4.88s0 0-4.88 2a4.32 4.32 0 0 1 -4.74-.93l-38-38a2.4 2.4 0 0 1 0-3.4l7.33-7.33a2.4 2.4 0 0 1 3.4 0l38 38a4.32 4.32 0 0 1 .89 4.78z" fill="#d1ebf6" data-original="#d1ebf6"></path><path d="m41.53 28.17-2.07-2.07a2.13 2.13 0 0 0 -3 0l-2.07 2.07a2.12 2.12 0 0 0 1.5 3.62h4.11a2.12 2.12 0 0 0 1.53-3.62z" fill="#ffffff" data-original="#ffffff"></path><path d="m79.36 74.44-3.75 3.75-2.61-2.62a3 3 0 0 0 -3.25-.64l-4.64 2a4.34 4.34 0 0 1 -4.76-.93l-31.54-31.57a5.31 5.31 0 0 1 3.75-9.06h15.23a13.37 13.37 0 0 1 9.46 3.92l19.89 19.89a4.33 4.33 0 0 1 .93 4.74c-2.16 5.11-2.14 4.93-2.18 5.6a2.91 2.91 0 0 0 .85 2.3z" fill="#f49b6f" data-original="#f49b6f"></path><path d="m78 64.07a12 12 0 0 1 -6.81 7.24l-.92.39a4.34 4.34 0 0 1 -4.75-.92l-31.52-31.54c-2-2-1.2-3.87 1.67-3.87h12.12a13.37 13.37 0 0 1 9.46 3.92l19.89 19.89a4.4 4.4 0 0 1 .86 4.89z" fill="#f4c86f" data-original="#f4c86f"></path><path d="m57.83 43.48-.41.32a2.94 2.94 0 0 0 -.24 4.38l7.72 7.71a2.94 2.94 0 0 0 3.9.23l.33-.25a3 3 0 0 0 .34-4.46l-7.72-7.72a2.93 2.93 0 0 0 -3.92-.21z" fill="#f4f0ab" data-original="#f4f0ab"></path><rect fill="#70c2ef" height="8.08" rx="1.55" transform="matrix(.707 -.707 .707 .707 -8.32 21.73)" width="29.84" x="7.16" y="16.87" data-original="#70c2ef"></rect><rect fill="#348bd6" height="8.08" rx="1.55" transform="matrix(.707 -.707 .707 .707 -12.71 19.91)" width="17.4" x="8.98" y="21.26" data-original="#348bd6"></rect><rect fill="#70c2ef" height="4.32" rx="1.55" transform="matrix(.707 -.707 .707 .707 -3.91 11.09)" width="23.74" x="-.44" y="8.1" data-original="#70c2ef"></rect><rect fill="#348bd6" height="4.32" rx="1.55" transform="matrix(.707 -.707 .707 .707 -7.65 9.54)" width="13.16" x="1.11" y="11.85" data-original="#348bd6"></rect><path d="m8.22 10.49h15.74v8.85h-15.74z" fill="#5c86c7" transform="matrix(.707 -.707 .707 .707 -5.84 15.75)" data-original="#5c86c7"></path><path d="m9.49 13.57h7.04v8.85h-7.04z" fill="#3e5e9a" transform="matrix(.707 -.707 .707 .707 -8.91 14.47)" data-original="#3e5e9a"></path><rect fill="#897ccc" height="8.87" rx="1.71" width="16.51" x="32.25" y="40.82" data-original="#897ccc"></rect><rect fill="#6659a9" height="6.16" rx="1.71" width="16.51" x="32.25" y="43.53" data-original="#6659a9"></rect><rect fill="#43458b" height="6.16" rx="1.71" width="7.37" x="32.25" y="43.53" data-original="#43458b"></rect><path d="m53.76 70.84v21.09a3.07 3.07 0 0 1 -3.07 3.07h-20.38a3.06 3.06 0 0 1 -3.06-3.07v-21.09a11.6 11.6 0 0 1 1.81-6.24l4.46-7a6.73 6.73 0 0 0 1-3.59v-4.31h11.92v4.3a6.73 6.73 0 0 0 1 3.59l4.47 7a11.69 11.69 0 0 1 1.85 6.25z" fill="#a9bee7" data-original="#a9bee7"></path><path d="m27.25 84.25v7.68a3.06 3.06 0 0 0 3.06 3.07h20.38a3.07 3.07 0 0 0 3.07-3.07v-7.68z" fill="#728cc4" data-original="#728cc4"></path><path d="m53.76 70.84v21.09a3.07 3.07 0 0 1 -3.07 3.07h-13.27a3.07 3.07 0 0 1 -3.07-3.07v-21.09a11.69 11.69 0 0 1 1.81-6.24l4.47-7a6.73 6.73 0 0 0 1-3.59v-4.31h4.77v4.3a6.73 6.73 0 0 0 1 3.59l4.47 7a11.69 11.69 0 0 1 1.89 6.25z" fill="#d1ebf6" data-original="#d1ebf6"></path><path d="m48.61 66.83c-.57-1-1.55-2.49-3.32-5.26a1.44 1.44 0 0 0 -2.44 0c-1.71 2.74-2.73 4.15-3.38 5.28a1.61 1.61 0 0 0 1.41 2.39h6.33a1.61 1.61 0 0 0 1.4-2.41z" fill="#ffffff" data-original="#ffffff"></path><path d="m27.25 77.2h26.51v9.22h-26.51z" fill="#348bd6" data-original="#348bd6"></path><path d="m27.25 81.39h26.51v5.03h-26.51z" fill="#3459b3" data-original="#3459b3"></path><rect fill="#b6ffff" height="14.92" rx="1.5" width="14.21" x="33.4" y="73.93" data-original="#b6ffff" class=""></rect><path d="m33.4 77.91v9.72a1.38 1.38 0 0 0 1.5 1.22h11.21a1.38 1.38 0 0 0 1.5-1.22v-9.72a1.38 1.38 0 0 0 -1.5-1.22h-11.21a1.38 1.38 0 0 0 -1.5 1.22z" fill="#70c2ef" data-original="#70c2ef"></path><g fill="#302d3d"><path d="m54.79 50.42a1 1 0 0 1 -.71-1.71l6.3-6.29a1 1 0 0 1 1.41 1.41l-6.29 6.3a1 1 0 0 1 -.71.29z" fill="#302d3d" data-original="#302d3d"></path><path d="m62.3 51.63a1 1 0 0 1 -.71-1.7l3.15-3.15a1 1 0 0 1 1.42 0 1 1 0 0 1 0 1.41l-3.16 3.15a1 1 0 0 1 -.7.29z" fill="#302d3d" data-original="#302d3d"></path><path d="m66.66 56a1 1 0 0 1 -.7-1.71l3.14-3.15a1 1 0 1 1 1.42 1.42l-3.15 3.14a1 1 0 0 1 -.71.3z" fill="#302d3d" data-original="#302d3d"></path><path d="m53.7 43a1 1 0 0 1 -.7-1.71l3.14-3.15a1 1 0 0 1 1.42 1.42l-3.15 3.14a1 1 0 0 1 -.71.3z" fill="#302d3d" data-original="#302d3d"></path><path d="m67.88 63.51a1 1 0 0 1 -.71-1.71l6.3-6.29a1 1 0 0 1 1.41 0 1 1 0 0 1 0 1.41l-6.3 6.3a1 1 0 0 1 -.7.29z" fill="#302d3d" data-original="#302d3d"></path><path d="m93.83 93.66a1 1 0 0 1 -.71-.3l-16.34-16.36a1 1 0 0 1 1.41-1.41l16.35 16.41a1 1 0 0 1 -.71 1.66z" fill="#302d3d" data-original="#302d3d"></path><path d="m62.38 71.71a1 1 0 0 1 -.7-.29l-5.21-5.21a1 1 0 0 1 0-1.42 1 1 0 0 1 1.41 0l5.21 5.21a1 1 0 0 1 -.71 1.71z" fill="#302d3d" data-original="#302d3d"></path><path d="m16.33 21.94a1 1 0 0 1 -.71-.29l-4-4a1 1 0 1 1 1.41-1.41l4 4a1 1 0 0 1 -.7 1.7z" fill="#302d3d" data-original="#302d3d"></path><path d="m48.76 54.2h-16.52a1 1 0 0 1 0-2h16.52a1 1 0 1 1 0 2z" fill="#302d3d" data-original="#302d3d"></path><path d="m79.36 75.44a1 1 0 0 1 -.71-.29l-2.65-2.62a4 4 0 0 1 -.84-4.35l2-4.65a3.33 3.33 0 0 0 -.72-3.64l-43.82-43.81a1 1 0 0 1 1.38-1.42l43.85 43.81a5.34 5.34 0 0 1 1.15 5.84l-2 4.69a2 2 0 0 0 .42 2.15l2.62 2.62a1 1 0 0 1 -.68 1.67z" fill="#302d3d" data-original="#302d3d"></path><path d="m32.25 48.87a1 1 0 0 1 -.71-.29l-15.71-15.71a1 1 0 1 1 1.42-1.42l15.75 15.71a1 1 0 0 1 -.75 1.71z" fill="#302d3d" data-original="#302d3d"></path><path d="m74.9 78.9c-2.9-2.9-2.74-2.78-3.04-2.9l.37-.94a3.44 3.44 0 0 0 -.41.9h-.06c-1.11-.47-1.3-.18-6.2 1.88a5.12 5.12 0 0 1 -3.18.35 5.36 5.36 0 0 1 -2.73-1.45l-6.71-6.74a1 1 0 0 1 1.42-1.42l6.7 6.7a3.34 3.34 0 0 0 3.65.71c5-2.12 4.86-2.08 5.39-2.19a4 4 0 0 1 2.27.21c1 .32 1.81 1.36 3.24 2.79l3-3a1 1 0 0 1 .71-.29 1 1 0 0 1 .68 1.71l-3.68 3.68a1 1 0 0 1 -1.42 0z" fill="#302d3d" data-original="#302d3d"></path><path d="m74.9 78.9c-2.9-2.9-2.74-2.78-3.04-2.9l.37-.94a3.44 3.44 0 0 0 -.41.9h-.06a2 2 0 0 0 -1.66 0c-5.1 2.04-5.02 2.04-5.55 2.15a5.36 5.36 0 0 1 -4.9-1.43l-6.71-6.68a1 1 0 0 1 1.42-1.42l6.7 6.7a3.36 3.36 0 0 0 3.11.89c.3-.05.19 0 5.18-2.14a4 4 0 0 1 3.48.2c.61.33.78.57 2.78 2.57l2.39-2.36-2-1.91a4 4 0 0 1 -.84-4.35l2-4.65a3.33 3.33 0 0 0 -.72-3.64l-19.9-19.89a12.28 12.28 0 0 0 -8.75-3.63h-15.23a4.3 4.3 0 0 0 -3 7.35l3.44 3.44a1 1 0 0 1 -1.42 1.42l-3.48-3.44a6.31 6.31 0 0 1 4.46-10.77h15.23a14.32 14.32 0 0 1 10.21 4.21l19.85 19.89a5.34 5.34 0 0 1 1.15 5.84l-2 4.69a2 2 0 0 0 .42 2.15l2.62 2.62a1 1 0 0 1 0 1.42l-3.72 3.71a1 1 0 0 1 -1.42 0z" fill="#302d3d" data-original="#302d3d"></path><path d="m12.58 33.92-3.52-3.52a2.57 2.57 0 0 1 0-3.61l18.94-18.9a2.55 2.55 0 0 1 3.6 0l3.52 3.52a2.55 2.55 0 0 1 0 3.61l-18.9 18.9a2.57 2.57 0 0 1 -3.64 0zm17.19-24.78c-.36 0 1.06-1.28-19.29 19.07a.54.54 0 0 0 0 .78l3.52 3.52a.56.56 0 0 0 .78 0l18.9-18.91a.56.56 0 0 0 0-.78c-3.79-3.82-3.59-3.68-3.91-3.68z" fill="#302d3d" data-original="#302d3d"></path><path d="m2.76 19.79-.86-.85a2.56 2.56 0 0 1 0-3.61l14.6-14.6a2.62 2.62 0 0 1 3.61 0l.86.86a2.57 2.57 0 0 1 .03 3.61l-14.63 14.59a2.55 2.55 0 0 1 -3.61 0zm15.54-17.79c-.33 0 .61-.83-15 14.76a.54.54 0 0 0 0 .78l.86.86a.56.56 0 0 0 .78 0l14.61-14.62a.54.54 0 0 0 0-.78c-.94-.94-.96-1-1.25-1z" fill="#302d3d" data-original="#302d3d"></path><path d="m13 24.32-6.31-6.26a1 1 0 0 1 0-1.41l11.13-11.13a1 1 0 0 1 1.41 0l6.26 6.26a1 1 0 0 1 0 1.41l-11.13 11.13a1 1 0 0 1 -1.36 0zm-4.14-7 4.85 4.85 9.71-9.72-4.89-4.81z" fill="#302d3d" data-original="#302d3d"></path><path d="m47.05 50.7h-13.05a2.72 2.72 0 0 1 -2.75-2.7v-5.46a2.71 2.71 0 0 1 2.75-2.71h13.05a2.71 2.71 0 0 1 2.71 2.71v5.46a2.72 2.72 0 0 1 -2.71 2.7zm-13.05-8.87a.71.71 0 0 0 -.72.71v5.46a.72.72 0 0 0 .72.72h13.05a.71.71 0 0 0 .71-.72v-5.46a.71.71 0 0 0 -.71-.71z" fill="#302d3d" data-original="#302d3d"></path><path d="m50.69 96h-20.38a4.07 4.07 0 0 1 -4.06-4.07v-21.09a12.68 12.68 0 0 1 2-6.77l4.47-7a5.68 5.68 0 0 0 .84-3.07v-4.3a1 1 0 0 1 1-1h11.88a1 1 0 0 1 1 1v4.3a5.69 5.69 0 0 0 .89 3l4.46 7a12.6 12.6 0 0 1 2 6.77v21.16a4.07 4.07 0 0 1 -4.1 4.07zm-15.13-45.3c0 6.57.47 4.77-5.66 14.44a10.66 10.66 0 0 0 -1.65 5.7v21.09a2.07 2.07 0 0 0 2.06 2.07h20.38a2.07 2.07 0 0 0 2.07-2.07v-21.09a10.58 10.58 0 0 0 -1.66-5.7c-6.17-9.74-5.66-7.86-5.66-14.44z" fill="#302d3d" data-original="#302d3d"></path><path d="m53.76 87.42h-6.15a1 1 0 0 1 0-2h5.15v-7.22h-5.15a1 1 0 0 1 0-2h6.15a1 1 0 0 1 1 1v9.22a1 1 0 0 1 -1 1z" fill="#302d3d" data-original="#302d3d"></path><path d="m33.4 87.42h-6.15a1 1 0 0 1 -1-1v-9.22a1 1 0 0 1 1-1h6.15a1 1 0 0 1 0 2h-5.15v7.22h5.15a1 1 0 0 1 0 2z" fill="#302d3d" data-original="#302d3d"></path><path d="m46.11 89.85h-11.21a2.5 2.5 0 0 1 -2.5-2.5v-11.92a2.5 2.5 0 0 1 2.5-2.5h11.21a2.5 2.5 0 0 1 2.5 2.5v11.92a2.5 2.5 0 0 1 -2.5 2.5zm-11.21-14.92a.5.5 0 0 0 -.5.5v11.92a.5.5 0 0 0 .5.5h11.21a.5.5 0 0 0 .5-.5v-11.92a.51.51 0 0 0 -.5-.5z" fill="#302d3d" data-original="#302d3d"></path></g></g></g></svg>